<svg xmlns="http://www.w3.org/2000/svg" xmlns:xlink="http://www.w3.org/1999/xlink" width="262" height="84" viewBox="0 0 262 84">
  <defs>
    <circle id="lockup-a" cx="30" cy="30" r="30"/>
    <filter id="lockup-b" width="158.3%" height="158.3%" x="-29.2%" y="-25.8%" filterUnits="objectBoundingBox">
      <feMorphology in="SourceAlpha" operator="dilate" radius=".5" result="shadowSpreadOuter1"/>
      <feOffset dy="2" in="shadowSpreadOuter1" result="shadowOffsetOuter1"/>
      <feGaussianBlur in="shadowOffsetOuter1" result="shadowBlurOuter1" stdDeviation="5"/>
      <feColorMatrix in="shadowBlurOuter1" values="0 0 0 0 0   0 0 0 0 0   0 0 0 0 0  0 0 0 0.5 0"/>
    </filter>
    <path id="lockup-e" d="M60,0.652173913 L59.9107415,19.3681681 L37.5222575,41.7584182 C37.409644,41.8797293 37.2943244,41.9994362 37.1762988,42.1174618 C32.0285668,47.2651939 23.6824441,47.2651939 18.5347121,42.1174618 C13.38698,36.9697298 13.38698,28.6236071 18.5347121,23.4758751 C18.6507922,23.359795 18.7684987,23.2463324 18.8877582,23.1354875 L41.2840058,0.741432423 L60,0.652173913 Z"/>
    <filter id="lockup-d" width="148.5%" height="148.5%" x="-24.3%" y="-22.1%" filterUnits="objectBoundingBox">
      <feMorphology in="SourceAlpha" operator="dilate" radius=".5" result="shadowSpreadOuter1"/>
      <feOffset dy="1" in="shadowSpreadOuter1" result="shadowOffsetOuter1"/>
      <feGaussianBlur in="shadowOffsetOuter1" result="shadowBlurOuter1" stdDeviation="3"/>
      <feColorMatrix in="shadowBlurOuter1" values="0 0 0 0 0   0 0 0 0 0   0 0 0 0 0  0 0 0 0.32 0"/>
    </filter>
  </defs>
  <g fill="none" fill-rule="evenodd">
    <g transform="translate(12 12)">
      <mask id="lockup-c" fill="#fff">
        <use xlink:href="#lockup-a"/>
      </mask>
      <use fill="#000" filter="url(#lockup-b)" xlink:href="#lockup-a"/>
      <use fill="#EC407A" xlink:href="#lockup-a"/>
      <g mask="url(#lockup-c)">
        <use fill="#000" filter="url(#lockup-d)" xlink:href="#lockup-e"/>
        <use fill="#FFF" xlink:href="#lockup-e"/>
      </g>
    </g>
    <path fill="#FFF" fill-rule="nonzero" d="M15.35,56.4738095 C18.6166667,56.4738095 21.35,55.6488095 23.55,53.9988095 C25.75,52.3488095 27.25,50.1238095 28.05,47.3238095 L28.05,47.3238095 L21.9,47.3238095 C20.8333333,50.2238095 18.65,51.6738095 15.35,51.6738095 C13.0166667,51.6738095 11.1583333,50.8404762 9.775,49.1738095 C8.39166667,47.5071429 7.7,45.1904762 7.7,42.2238095 C7.7,39.2571429 8.39166667,36.9488095 9.775,35.2988095 C11.1583333,33.6488095 13.0166667,32.8238095 15.35,32.8238095 C18.6833333,32.8238095 20.8666667,34.2738095 21.9,37.1738095 L21.9,37.1738095 L28.05,37.1738095 C27.2833333,34.2404762 25.8083333,31.9821429 23.625,30.3988095 C21.4416667,28.8154762 18.6833333,28.0238095 15.35,28.0238095 C11.3833333,28.0238095 8.14166667,29.3238095 5.625,31.9238095 C3.10833333,34.5238095 1.85,37.9654762 1.85,42.2488095 C1.85,46.5321429 3.1,49.9738095 5.6,52.5738095 C8.1,55.1738095 11.35,56.4738095 15.35,56.4738095 Z M44.85,56.4738095 C47.0166667,56.4738095 48.9166667,55.9654762 50.55,54.9488095 C52.1833333,53.9321429 53.4666667,52.5738095 54.4,50.8738095 L54.4,50.8738095 L54.4,56.0238095 L60.15,56.0238095 L60.15,28.4738095 L54.4,28.4738095 L54.4,33.3738095 C53.5,31.7738095 52.225,30.4821429 50.575,29.4988095 C48.925,28.5154762 47.0166667,28.0238095 44.85,28.0238095 C41.15,28.0238095 38.0583333,29.3321429 35.575,31.9488095 C33.0916667,34.5654762 31.85,37.9654762 31.85,42.1488095 C31.85,46.3321429 33.1,49.7654762 35.6,52.4488095 C38.1,55.1321429 41.1833333,56.4738095 44.85,56.4738095 Z M46.05,51.5238095 C43.7833333,51.5238095 41.825,50.6654762 40.175,48.9488095 C38.525,47.2321429 37.7,44.9571429 37.7,42.1238095 C37.7,39.2904762 38.525,37.0571429 40.175,35.4238095 C41.825,33.7904762 43.7833333,32.9738095 46.05,32.9738095 C48.3166667,32.9738095 50.275,33.8071429 51.925,35.4738095 C53.575,37.1404762 54.4,39.3904762 54.4,42.2238095 C54.4,45.0571429 53.5666667,47.3238095 51.9,49.0238095 C50.2666667,50.6904762 48.3166667,51.5238095 46.05,51.5238095 Z M73.35,56.0238095 L73.35,40.6238095 C73.35,38.1571429 73.975,36.2654762 75.225,34.9488095 C76.475,33.6321429 78.1666667,32.9738095 80.3,32.9738095 C82.4333333,32.9738095 84.1166667,33.6321429 85.35,34.9488095 C86.5833333,36.2654762 87.2,38.1571429 87.2,40.6238095 L87.2,40.6238095 L87.2,56.0238095 L92.85,56.0238095 L92.85,39.7738095 C92.85,36.0738095 91.8416667,33.1904762 89.825,31.1238095 C87.8083333,29.0571429 85.25,28.0238095 82.15,28.0238095 C78.1166667,28.0238095 75.1833333,29.6238095 73.35,32.8238095 L73.35,32.8238095 L73.35,28.4738095 L67.65,28.4738095 L67.65,56.0238095 L73.35,56.0238095 Z M111.2,56.4738095 C113.366667,56.4738095 115.266667,55.9654762 116.9,54.9488095 C118.533333,53.9321429 119.816667,52.5738095 120.75,50.8738095 L120.75,50.8738095 L120.75,56.0238095 L126.5,56.0238095 L126.5,28.4738095 L120.75,28.4738095 L120.75,33.3738095 C119.85,31.7738095 118.575,30.4821429 116.925,29.4988095 C115.275,28.5154762 113.366667,28.0238095 111.2,28.0238095 C107.5,28.0238095 104.408333,29.3321429 101.925,31.9488095 C99.4416667,34.5654762 98.2,37.9654762 98.2,42.1488095 C98.2,46.3321429 99.45,49.7654762 101.95,52.4488095 C104.45,55.1321429 107.533333,56.4738095 111.2,56.4738095 Z M112.4,51.5238095 C110.133333,51.5238095 108.175,50.6654762 106.525,48.9488095 C104.875,47.2321429 104.05,44.9571429 104.05,42.1238095 C104.05,39.2904762 104.875,37.0571429 106.525,35.4238095 C108.175,33.7904762 110.133333,32.9738095 112.4,32.9738095 C114.666667,32.9738095 116.625,33.8071429 118.275,35.4738095 C119.925,37.1404762 120.75,39.3904762 120.75,42.2238095 C120.75,45.0571429 119.916667,47.3238095 118.25,49.0238095 C116.616667,50.6904762 114.666667,51.5238095 112.4,51.5238095 Z M139.7,56.0238095 L139.7,19.0238095 L134,19.0238095 L134,56.0238095 L139.7,56.0238095 Z" transform="translate(96 .976)"/>
  </g>
</svg>
